<svg id="visual" viewBox="0 0 960 300" width="960" height="300" xmlns="http://www.w3.org/2000/svg" xmlns:xlink="http://www.w3.org/1999/xlink" version="1.1"><rect x="0" y="0" width="960" height="300" fill="#001220"></rect><defs><linearGradient id="grad1_0" x1="68.8%" y1="100%" x2="100%" y2="0%"><stop offset="-14.000000000000007%" stop-color="#001220" stop-opacity="1"></stop><stop offset="114.00000000000001%" stop-color="#001220" stop-opacity="1"></stop></linearGradient></defs><defs><linearGradient id="grad2_0" x1="0%" y1="100%" x2="31.3%" y2="0%"><stop offset="-14.000000000000007%" stop-color="#001220" stop-opacity="1"></stop><stop offset="114.00000000000001%" stop-color="#001220" stop-opacity="1"></stop></linearGradient></defs><g transform="translate(960, 300)"><path d="M-270 0C-266.2 -35.2 -262.5 -70.5 -249.4 -103.3C-236.4 -136.2 -214.2 -166.7 -186.7 -186.7C-159.2 -206.6 -126.5 -216.1 -94.5 -228.2C-62.5 -240.3 -31.3 -255.2 0 -270L0 0Z" fill="#FBAE3C"></path></g><g transform="translate(0, 0)"><path d="M270 0C262 32.8 254 65.6 243 100.6C231.9 135.6 217.8 172.8 190.9 190.9C164 209 124.3 208 90.3 218C56.4 228 28.2 249 0 270L0 0Z" fill="#FBAE3C"></path></g></svg>