<svg id="visual" viewBox="0 0 960 300" width="960" height="300" xmlns="http://www.w3.org/2000/svg" xmlns:xlink="http://www.w3.org/1999/xlink" version="1.1"><rect x="0" y="0" width="960" height="300" fill="#001220"></rect><defs><linearGradient id="grad1_0" x1="68.8%" y1="0%" x2="100%" y2="100%"><stop offset="-14.000000000000007%" stop-color="#001220" stop-opacity="1"></stop><stop offset="114.00000000000001%" stop-color="#001220" stop-opacity="1"></stop></linearGradient></defs><defs><linearGradient id="grad2_0" x1="0%" y1="0%" x2="31.3%" y2="100%"><stop offset="-14.000000000000007%" stop-color="#001220" stop-opacity="1"></stop><stop offset="114.00000000000001%" stop-color="#001220" stop-opacity="1"></stop></linearGradient></defs><g transform="translate(960, 0)"><path d="M0 270C-31.3 259.3 -62.5 248.6 -98.7 238.4C-134.9 228.1 -176 218.2 -190.9 190.9C-205.8 163.6 -194.4 118.9 -203.3 84.2C-212.1 49.5 -241 24.7 -270 0L0 0Z" fill="#FBAE3C"></path></g><g transform="translate(0, 300)"><path d="M0 -270C36.9 -262.9 73.9 -255.7 97.2 -234.7C120.5 -213.6 130.2 -178.6 157 -157C183.8 -135.4 227.8 -127.2 249.4 -103.3C271.1 -79.4 270.6 -39.7 270 0L0 0Z" fill="#FBAE3C"></path></g></svg>