<svg id="visual" viewBox="0 0 960 300" width="960" height="300" xmlns="http://www.w3.org/2000/svg" xmlns:xlink="http://www.w3.org/1999/xlink" version="1.1"><path d="M0 103L14.5 97.5C29 92 58 81 87.2 77.5C116.3 74 145.7 78 174.8 80C204 82 233 82 262 85.5C291 89 320 96 349 98.5C378 101 407 99 436.2 97.5C465.3 96 494.7 95 523.8 95C553 95 582 96 611 87C640 78 669 59 698 52.5C727 46 756 52 785.2 53.5C814.3 55 843.7 52 872.8 52.5C902 53 931 57 945.5 59L960 61L960 0L945.5 0C931 0 902 0 872.8 0C843.7 0 814.3 0 785.2 0C756 0 727 0 698 0C669 0 640 0 611 0C582 0 553 0 523.8 0C494.7 0 465.3 0 436.2 0C407 0 378 0 349 0C320 0 291 0 262 0C233 0 204 0 174.8 0C145.7 0 116.3 0 87.2 0C58 0 29 0 14.5 0L0 0Z" fill="#f4d880"></path><path d="M0 193L14.5 194.5C29 196 58 199 87.2 196C116.3 193 145.7 184 174.8 183.5C204 183 233 191 262 189C291 187 320 175 349 171.5C378 168 407 173 436.2 175.5C465.3 178 494.7 178 523.8 172C553 166 582 154 611 150C640 146 669 150 698 159.5C727 169 756 184 785.2 184C814.3 184 843.7 169 872.8 163.5C902 158 931 162 945.5 164L960 166L960 59L945.5 57C931 55 902 51 872.8 50.5C843.7 50 814.3 53 785.2 51.5C756 50 727 44 698 50.5C669 57 640 76 611 85C582 94 553 93 523.8 93C494.7 93 465.3 94 436.2 95.5C407 97 378 99 349 96.5C320 94 291 87 262 83.5C233 80 204 80 174.8 78C145.7 76 116.3 72 87.2 75.5C58 79 29 90 14.5 95.5L0 101Z" fill="#f1cf63"></path><path d="M0 235L14.5 234C29 233 58 231 87.2 224.5C116.3 218 145.7 207 174.8 206.5C204 206 233 216 262 215C291 214 320 202 349 202C378 202 407 214 436.2 222C465.3 230 494.7 234 523.8 226.5C553 219 582 200 611 196C640 192 669 203 698 211C727 219 756 224 785.2 222C814.3 220 843.7 211 872.8 208.5C902 206 931 210 945.5 212L960 214L960 164L945.5 162C931 160 902 156 872.8 161.5C843.7 167 814.3 182 785.2 182C756 182 727 167 698 157.5C669 148 640 144 611 148C582 152 553 164 523.8 170C494.7 176 465.3 176 436.2 173.5C407 171 378 166 349 169.5C320 173 291 185 262 187C233 189 204 181 174.8 181.5C145.7 182 116.3 191 87.2 194C58 197 29 194 14.5 192.5L0 191Z" fill="#eec643"></path><path d="M0 259L14.5 257C29 255 58 251 87.2 247.5C116.3 244 145.7 241 174.8 245.5C204 250 233 262 262 260.5C291 259 320 244 349 239C378 234 407 239 436.2 244C465.3 249 494.7 254 523.8 251.5C553 249 582 239 611 236.5C640 234 669 239 698 242.5C727 246 756 248 785.2 249.5C814.3 251 843.7 252 872.8 250.5C902 249 931 245 945.5 243L960 241L960 212L945.5 210C931 208 902 204 872.8 206.5C843.7 209 814.3 218 785.2 220C756 222 727 217 698 209C669 201 640 190 611 194C582 198 553 217 523.8 224.5C494.7 232 465.3 228 436.2 220C407 212 378 200 349 200C320 200 291 212 262 213C233 214 204 204 174.8 204.5C145.7 205 116.3 216 87.2 222.5C58 229 29 231 14.5 232L0 233Z" fill="#d0ac38"></path><path d="M0 301L14.5 301C29 301 58 301 87.2 301C116.3 301 145.7 301 174.8 301C204 301 233 301 262 301C291 301 320 301 349 301C378 301 407 301 436.2 301C465.3 301 494.7 301 523.8 301C553 301 582 301 611 301C640 301 669 301 698 301C727 301 756 301 785.2 301C814.3 301 843.7 301 872.8 301C902 301 931 301 945.5 301L960 301L960 239L945.5 241C931 243 902 247 872.8 248.5C843.7 250 814.3 249 785.2 247.5C756 246 727 244 698 240.5C669 237 640 232 611 234.5C582 237 553 247 523.8 249.5C494.7 252 465.3 247 436.2 242C407 237 378 232 349 237C320 242 291 257 262 258.5C233 260 204 248 174.8 243.5C145.7 239 116.3 242 87.2 245.5C58 249 29 253 14.5 255L0 257Z" fill="#b2932d"></path></svg>